# xmcd
#
# Track frame offsets: 
#        150
#        11581
#        23667
#        37577
#        50630
#        63331
#        78487
#        91843
#        104421
#        118214
#
# Disc length: 1754 seconds
#
# Revision: 0
# Processed by: cddbd v1.5.2PL0 Copyright (c) Steve Scherf et al.
# Submitted via: ExactAudioCopy v0.99pb4
#
DISCID=7306d80a
DTITLE=Old Southern Jug Blowers - The Jug Band Special
DYEAR=2008
DGENRE=Blues
TTITLE0=Blue Devil Blues
TTITLE1=Blues Please Go Away
TTITLE2=Louisville Special
TTITLE3=Get It Fixed Blues
TTITLE4=Mama's Little Sunny Boy
TTITLE5=Pig Meat Blues
TTITLE6=Hatchet Head Blues
TTITLE7=Blues, Just Blues, That's All
TTITLE8=Dancing Blues
TTITLE9=Jug Band Special
EXTD=
EXTT0=
EXTT1=
EXTT2=
EXTT3=
EXTT4=
EXTT5=
EXTT6=
EXTT7=
EXTT8=
EXTT9=
PLAYORDER=
